<svg width='24' height='24' viewBox='0 0 24 24' xmlns='http://www.w3.org/2000/svg' xmlns:xlink='http://www.w3.org/1999/xlink'><rect width='24' height='24' stroke='none' fill='#000000' opacity='0'/>


<g transform="matrix(0.42 0 0 0.42 12 12)" >
<g style="" >
<g transform="matrix(1 0 0 1 1.37 -10.86)" >
<path style="stroke: none; stroke-width: 1; stroke-dasharray: none; stroke-linecap: butt; stroke-dashoffset: 0; stroke-linejoin: miter; stroke-miterlimit: 4; fill: rgb(46,125,50); fill-rule: nonzero; opacity: 1;" transform=" translate(-25.37, -13.14)" d="M 40.646 14.104 L 39.083 14.312 L 34.104 10.718 L 35.198 8.5 L 38.011 8.969 L 37.542 9.687999999999999 C 38.758 10.379 39.593 11.448999999999998 40.146 12.729999999999999 C 40.709 12.729999999999999 41 12.751 41.563 12.708999999999998 C 41.208 13.25 41 13.5 40.646 14.104 z M 27.104 20.75 C 27.104 20.75 20.552999999999997 20.103 20.854 12.187 C 17.104 10.437 12.979 7.561999999999999 9.292 2.7489999999999988 C 8.698 7.8279999999999985 10.312999999999999 11.562 12.562999999999999 14.873999999999999 C 12.562999999999999 14.873999999999999 19.9 24.613999999999997 26.416999999999998 23.436999999999998 C 32.934 22.259999999999998 27.104 20.75 27.104 20.75 z" stroke-linecap="round" />
</g>
<g transform="matrix(1 0 0 1 11.01 14.11)" >
<path style="stroke: none; stroke-width: 1; stroke-dasharray: none; stroke-linecap: butt; stroke-dashoffset: 0; stroke-linejoin: miter; stroke-miterlimit: 4; fill: rgb(76,175,80); fill-rule: nonzero; opacity: 1;" transform=" translate(-35.01, -38.11)" d="M 31.917 30.667 C 31.917 30.667 34.417 34.5 33.25 37.584 C 32.324 40.032000000000004 34.345 40.889 35.7 40.279 C 37.055 39.67 35.25 37.992000000000004 36.039 36.53 C 36.828 35.068 39.002 35.808 39.002 35.808 C 38.088 36.772 37.409000000000006 38.568 37.626000000000005 39.996 C 39.400000000000006 37.474000000000004 42.678000000000004 37.603 42.967000000000006 40.603 C 41.973000000000006 39.9 39.67900000000001 40.348 38.301 41.182 C 41.589 41.371 42.639 43.147000000000006 41.339 45.561 C 41.065 44.177 39.044 42.737 37.64 42.524 C 37.64 42.524 36.733000000000004 42.817 36.481 43.548 C 36.229 44.279 36.943000000000005 45.5 36.943000000000005 45.5 C 36.943000000000005 45.5 35.184000000000005 45.851 34.783 44.149 C 34.545 43.137 35.231 42.206 35.231 42.206 C 35.231 42.206 30.5 43.242000000000004 29.542 41.843 C 28.584000000000003 40.444 26.584000000000003 36.937000000000005 27.167 34.687000000000005 C 27.851 32.046 31.917 30.667 31.917 30.667 z" stroke-linecap="round" />
</g>
<g transform="matrix(1 0 0 1 15.91 5.08)" >
<path style="stroke: none; stroke-width: 1; stroke-dasharray: none; stroke-linecap: butt; stroke-dashoffset: 0; stroke-linejoin: miter; stroke-miterlimit: 4; fill: rgb(46,125,50); fill-rule: nonzero; opacity: 1;" transform=" translate(-39.91, -29.08)" d="M 35.667 28.25 C 35.917 30.313 39.597 30.319 40.163000000000004 29.342 C 40.729000000000006 28.365 38.871 28.13 38.709 26.878999999999998 C 38.547000000000004 25.627999999999997 40.217000000000006 25.119999999999997 40.217000000000006 25.119999999999997 C 40.081 26.119999999999997 40.458000000000006 27.528999999999996 41.226000000000006 28.313999999999997 C 41.202000000000005 25.970999999999997 43.282000000000004 24.596999999999998 44.791000000000004 26.319999999999997 C 43.86600000000001 26.326999999999998 42.649 27.620999999999995 42.169000000000004 28.746999999999996 C 44.281000000000006 27.404999999999998 45.717000000000006 28.034999999999997 45.986000000000004 30.101999999999997 C 45.203 29.369999999999997 43.318000000000005 29.376999999999995 42.357000000000006 29.868999999999996 C 42.357000000000006 29.868999999999996 41.92700000000001 30.451999999999995 42.096000000000004 31.014999999999997 C 42.264 31.577999999999996 43.24700000000001 32.013999999999996 43.24700000000001 32.013999999999996 C 43.24700000000001 32.013999999999996 42.318000000000005 33.010999999999996 41.315000000000005 32.138 C 40.71900000000001 31.619 40.729000000000006 30.741 40.729000000000006 30.741 C 40.729000000000006 30.741 38.126000000000005 34.834 33.834 32.084 C 34.646 30.958 35.135 29.823 35.667 28.25 z" stroke-linecap="round" />
</g>
<g transform="matrix(1 0 0 1 -3.22 0.87)" >
<path style="stroke: none; stroke-width: 1; stroke-dasharray: none; stroke-linecap: butt; stroke-dashoffset: 0; stroke-linejoin: miter; stroke-miterlimit: 4; fill: rgb(76,175,80); fill-rule: nonzero; opacity: 1;" transform=" translate(-20.78, -24.87)" d="M 36.5 18.125 C 29.459 16.65 27.578 13.174 28.555 11.048 C 28.879 10.343 30.417 8.917 33.125 9.5 C 33 8.188 32.811 7.35 31.813 6.218 C 28.958 5.666 25.407999999999998 6.897 23.75 8.937 C 20.609 12.802 23.209 17.781 25.696 21.516 C 25.838 26.351 22.6 34.951 17.166000000000004 37.333 C 12.416000000000004 39.416 7.203000000000005 38.748999999999995 7.103000000000003 34.25 C 7.057000000000003 32.15 9.496000000000002 30.479 13.593000000000004 30.406 C 12.664000000000003 31.075 11.052000000000003 32.473 9.729000000000003 34.867999999999995 C 14.209000000000003 32.644999999999996 17.371000000000002 31.039999999999996 20.525000000000002 31.519999999999996 C 20.525000000000002 31.519999999999996 17.426000000000002 27.179999999999996 11.749000000000002 26.667999999999996 C 11.749000000000002 26.667999999999996 12.861000000000002 27.926999999999996 13.753000000000002 29.093999999999994 C 1.6710000000000012 28.093999999999994 0.9770000000000021 41.193 10.810000000000002 43.312999999999995 C 15.758000000000003 44.379999999999995 21.977000000000004 42.770999999999994 26.060000000000002 40.187999999999995 C 29.476 38.028 35.5 32.125 37 26.125 C 38.5 20.125 36.5 18.125 36.5 18.125 z" stroke-linecap="round" />
</g>
<g transform="matrix(1 0 0 1 5.61 -12.43)" >
<path style="stroke: none; stroke-width: 1; stroke-dasharray: none; stroke-linecap: butt; stroke-dashoffset: 0; stroke-linejoin: miter; stroke-miterlimit: 4; fill: rgb(46,125,50); fill-rule: nonzero; opacity: 1;" transform=" translate(-29.61, -11.57)" d="M 32.094 6.188 C 29.75 5.782 25.375 8.126 26.25 12.876 C 27.25 16.625999999999998 32.875 17.000999999999998 32.875 17.000999999999998 C 32.875 17.000999999999998 27.91 14.987999999999998 28.469 11.844999999999999 C 28.969 9.031999999999998 32.104 9.251 33.084 9.501 L 32.094 6.188 z" stroke-linecap="round" />
</g>
<g transform="matrix(1 0 0 1 -0.14 -9.76)" >
<path style="stroke: none; stroke-width: 1; stroke-dasharray: none; stroke-linecap: butt; stroke-dashoffset: 0; stroke-linejoin: miter; stroke-miterlimit: 4; fill: rgb(76,175,80); fill-rule: nonzero; opacity: 1;" transform=" translate(-23.86, -14.24)" d="M 45.042 8.75 C 45.042 8.75 43.442 9.176 42.959 9.083 C 42.476000000000006 8.99 38.947 7.809 38.682 7.206 C 38.418 6.603000000000001 38.768 5.306000000000001 38.768 5.306000000000001 C 38.768 5.306000000000001 38.366 5.282000000000001 37.808 5.219000000000001 C 37.284 4.513000000000002 35.627 2.660000000000001 32.25 1.958000000000001 C 32.25 1.958000000000001 34.142 2.954000000000001 35.044 4.607000000000001 C 34.851 4.522000000000001 34.684999999999995 4.428000000000001 34.559999999999995 4.322000000000001 C 33.617999999999995 3.523000000000001 30.340999999999994 2.085000000000001 26.574999999999996 2.836000000000001 C 32.41 4.317000000000001 33.641999999999996 10.056000000000001 31.663999999999994 11.645 C 31.663999999999994 11.645 34.992999999999995 11.741 36.22899999999999 12.859 C 37.46499999999999 13.977 37.687999999999995 16.208 37.687999999999995 16.208 C 37.687999999999995 16.208 39.693999999999996 15.716999999999999 40.73 14.040999999999999 L 39.105 14.187 C 38.266 12.724 37.221999999999994 11.26 35.19499999999999 10.937 C 35.20099999999999 9.956999999999999 35.480999999999995 9.322999999999999 36.016999999999996 9.011999999999999 C 36.016999999999996 9.011999999999999 38.635999999999996 10.322999999999999 40.97 10.777999999999999 C 43.304 11.233 43 13 43 13 C 44.142 11.868 44.583 10.833 45.042 8.75 z M 26.438 22.75 C 26.438 22.75 18.384999999999998 22.138 17.666999999999998 14.25 C 17.666999999999998 14.25 7.484999999999998 10.144 3.876999999999999 4.872 C 3.939999999999999 9.986 6.110999999999999 13.893 10.767999999999999 16.531 C 10.767999999999999 16.531 5.940999999999999 17.956999999999997 2.6739999999999995 14.480999999999998 C 2.6739999999999995 14.480999999999998 3.2529999999999992 20.229 10.411999999999999 21.566 C 10.411999999999999 21.566 8.154 23.615 4.812999999999999 23.244 C 4.812999999999999 23.244 6.624999999999999 25.205 12.090999999999998 24.73 C 12.090999999999998 24.73 17.154999999999998 27.864 23.467999999999996 25.859 C 29.780999999999995 23.854000000000003 26.438 22.75 26.438 22.75 z" stroke-linecap="round" />
</g>
<g transform="matrix(1 0 0 1 -8.9 8.65)" >
<path style="stroke: none; stroke-width: 1; stroke-dasharray: none; stroke-linecap: butt; stroke-dashoffset: 0; stroke-linejoin: miter; stroke-miterlimit: 4; fill: rgb(46,125,50); fill-rule: nonzero; opacity: 1;" transform=" translate(-15.1, -32.65)" d="M 13.646 30.417 C 12.859 30.908 10.646 32.938 9.688 34.938 C 11.875 33.834 17.146 30.959000000000003 20.521 31.500000000000004 C 17.417 30.25 15.292 30.292 13.646 30.417 z" stroke-linecap="round" />
</g>
<g transform="matrix(1 0 0 1 12.38 -17.27)" >
<path style="stroke: none; stroke-width: 1; stroke-dasharray: none; stroke-linecap: butt; stroke-dashoffset: 0; stroke-linejoin: miter; stroke-miterlimit: 4; fill: rgb(255,255,255); fill-rule: nonzero; opacity: 1;" transform=" translate(-36.38, -6.73)" d="M 35.481 6.079 C 35.155 6.531 35.33 6.9479999999999995 35.456 7.327999999999999 C 36.103 7.454 36.776 7.3759999999999994 37.461000000000006 7.217999999999999 C 36.749 6.963 36.181 6.617 35.481 6.079 z" stroke-linecap="round" />
</g>
<g transform="matrix(1 0 0 1 -3.14 1.03)" >
<path style="stroke: none; stroke-width: 1; stroke-dasharray: none; stroke-linecap: butt; stroke-dashoffset: 0; stroke-linejoin: miter; stroke-miterlimit: 4; fill: rgb(46,125,50); fill-rule: nonzero; opacity: 1;" transform=" translate(-20.86, -25.03)" d="M 25.293 25.233 C 25.125 25.999000000000002 24.907999999999998 26.788 24.641 27.583000000000002 C 25.334999999999997 27.196 27.281999999999996 25.967000000000002 28.447999999999997 23.812 C 28.448 23.813 26.587 24.686 25.293 25.233 z M 31.299 31.074 C 31.299 31.074 36.916 27 36.5 18.125 C 37.406 18.594 39.814 25.416 33.156 33.469 C 32.688 32.344 32.115 31.572 31.299 31.074 z M 10.812 43.313 C 15.76 44.38 21.979 42.771 26.061999999999998 40.188 C 26.583 39.859 27.226999999999997 39.367000000000004 27.842999999999996 38.875 C 27.474999999999998 37.822 26.873999999999995 36.5 27.248999999999995 33.917 C 24.915999999999997 37.334 10.748999999999995 47.917 4.050999999999995 36.589 C 4.364 39.53 6.635 42.412 10.812 43.313 z M 35.953 6.406 L 35.813 7.375 L 36.531 6.797 z" stroke-linecap="round" />
</g>
<g transform="matrix(1 0 0 1 12 -17.46)" >
<path style="stroke: none; stroke-width: 1; stroke-dasharray: none; stroke-linecap: butt; stroke-dashoffset: 0; stroke-linejoin: miter; stroke-miterlimit: 4; fill: rgb(46,125,50); fill-rule: nonzero; opacity: 1;" transform=" translate(-36, -6.54)" d="M 38.282 7.518 C 36.940999999999995 7.079 36.43899999999999 6.883 35.422 6.047 L 33.717999999999996 5.612 L 35.735 5.563 C 35.734 5.563 36.553 6.482 38.282 7.518 z" stroke-linecap="round" />
</g>
</g>
</g>
</svg>